<svg width="81" height="100" viewBox="0 0 81 100" fill="none" xmlns="http://www.w3.org/2000/svg">
<path fill-rule="evenodd" clip-rule="evenodd" d="M38.1789 0.201183C35.9295 0.714558 33.5517 2.24725 32.415 3.91601L31.9404 4.61296L29.8679 4.61433C27.6789 4.6157 26.9294 4.78265 25.7236 5.53668C24.891 6.05749 23.9187 7.45959 23.6194 8.57158L23.4212 9.30762H16.987C13.1068 9.30762 10.1415 9.39227 9.51669 9.52072C8.15603 9.80067 5.57821 11.0538 4.47306 11.9726C2.28096 13.7955 0.828219 16.2231 0.277309 18.9847C-0.00264254 20.388 -0.0292297 24.1243 0.0198401 55.3471C0.0718422 88.5804 0.0906099 90.1939 0.435271 91.2208C1.80492 95.3004 4.6971 98.1924 8.774 99.559C9.79703 99.9019 11.2922 99.922 39.5648 99.9748C72.5674 100.036 70.9833 100.093 73.7767 98.7449C76.9426 97.2167 79.4358 94.139 80.2273 90.7817C80.6674 88.9155 80.6664 20.1288 80.2263 18.3904C79.1793 14.2533 75.8439 10.847 71.7279 9.71113C70.3839 9.34027 69.7315 9.30762 63.6637 9.30762C57.508 9.30762 57.0615 9.28456 57.0574 8.9655C57.05 8.37374 56.2831 6.8905 55.6332 6.21134C54.4759 5.0018 53.7109 4.73828 51.102 4.6505L48.7588 4.57171L47.6511 3.36295C47.0419 2.69807 46.186 1.9065 45.7493 1.60368C43.8008 0.253381 40.5708 -0.345035 38.1789 0.201183ZM41.9125 6.15328C42.661 6.49345 43.9634 7.75147 43.9634 8.13464C43.9634 8.45369 45.1724 9.70702 45.8007 10.0394C46.2396 10.2714 47.0957 10.3831 48.8997 10.4435L51.3923 10.5267V14.5114V18.496H40.3467H29.3012V14.5119V10.5277L31.7021 10.448C34.6124 10.351 35.3389 10.0593 36.2816 8.6097C37.3394 6.98317 37.6698 6.63029 38.5349 6.20196C39.5614 5.69386 40.8599 5.6751 41.9125 6.15328ZM23.473 17.7629C23.5414 20.1403 23.6151 20.6672 23.976 21.3569C24.5107 22.3795 25.4047 23.2769 26.4403 23.8309C27.2469 24.2624 27.2733 24.2633 39.8332 24.3189C53.7152 24.3804 53.7066 24.381 55.1558 23.1803C55.5591 22.846 56.131 22.1612 56.4266 21.6583C56.929 20.8036 56.9704 20.5596 57.0617 17.9095L57.1595 15.0748L63.0082 15.023C69.5862 14.9647 70.5258 15.0875 72.0892 16.2104C72.5787 16.5621 73.2669 17.2503 73.6186 17.7398C74.9331 19.57 74.8627 17.3541 74.8058 55.1669L74.7542 89.3636L74.2471 90.4388C73.634 91.7383 72.4356 92.9733 71.1836 93.5955L70.2578 94.0555L40.605 94.1069L10.9522 94.1582L9.82029 93.7347C8.29229 93.1629 6.83193 91.7029 6.26049 90.1755L5.83724 89.0443L5.88827 54.3079L5.93929 19.5712L6.38561 18.6747C7.2499 16.9386 9.02716 15.5307 10.7962 15.1805C11.2431 15.0922 14.26 15.0103 17.5008 14.9985L23.3929 14.977L23.473 17.7629ZM23.925 32.2662C23.6024 32.4124 22.1561 33.7244 20.7112 35.1818L18.0839 37.8318L17.2527 37.0656C16.3145 36.2008 15.7356 35.9971 14.6362 36.1445C13.5631 36.2883 12.7715 36.9233 12.3768 37.9569C11.8376 39.369 12.1706 40.1173 14.3191 42.3218C15.3014 43.3296 16.3882 44.2754 16.7342 44.4234C17.4869 44.7453 18.5144 44.77 19.2692 44.4842C20 44.2073 27.0776 37.1716 27.5571 36.2451C28.3186 34.7742 27.7548 33.0226 26.3083 32.3659C25.3439 31.928 24.7285 31.9022 23.925 32.2662ZM32.8006 35.9214C31.9969 36.3875 31.5423 37.0592 31.3633 38.0457C31.1949 38.9731 31.9009 40.3447 32.8201 40.8759C33.4918 41.2641 33.799 41.2714 49.7306 41.2714C65.6622 41.2714 65.9693 41.2641 66.6411 40.8759C68.0829 40.0427 68.5053 38.2216 67.599 36.7468C66.8006 35.4477 67.6115 35.5038 49.7011 35.5087C33.6365 35.5132 33.4987 35.5165 32.8006 35.9214ZM23.7295 53.1282C23.5145 53.2453 22.1303 54.5376 20.6538 55.9999L17.969 58.6587L17.2214 57.9287C16.0361 56.7711 14.7675 56.587 13.3985 57.3735C12.7285 57.7584 12.0974 58.9146 12.0974 59.7574C12.0974 60.7743 12.6157 61.5618 14.5021 63.4114C16.596 65.4647 17.3948 65.84 18.7932 65.4275C19.4751 65.2266 20.3019 64.5109 23.4024 61.4378C25.4804 59.3783 27.32 57.4292 27.4905 57.1066C28.1657 55.8286 27.6977 54.0133 26.5058 53.2866C25.8135 52.8643 24.3657 52.7818 23.7295 53.1282ZM33.3292 56.4277C31.5087 56.9797 30.7162 59.3368 31.8268 60.8965C32.7149 62.144 31.9367 62.0918 49.6624 62.0914C64.5991 62.0912 65.8104 62.0666 66.4417 61.7493C68.4269 60.752 68.5294 57.8436 66.619 56.7156C65.9727 56.334 65.5737 56.3238 49.9261 56.2902C41.1092 56.2715 33.6406 56.3332 33.3292 56.4277ZM24.316 73.7115C23.9934 73.8578 22.587 75.1299 21.1908 76.5386C19.7945 77.9474 18.5737 79.1 18.4777 79.1C18.3815 79.1 17.9676 78.797 17.5579 78.4269C15.9047 76.9333 13.5738 77.3726 12.7928 79.3248C12.1938 80.8217 12.4628 81.4634 14.6141 83.6692C16.598 85.7037 17.2824 86.1379 18.5043 86.1379C19.6477 86.1379 20.6334 85.3757 24.3561 81.6127C28.4322 77.4922 28.7704 76.8768 27.9505 75.0716C27.6793 74.4746 27.3644 74.1616 26.7202 73.8497C25.7269 73.369 25.1461 73.3356 24.316 73.7115ZM33.208 77.3061C32.262 77.8013 31.5848 79.1284 31.7437 80.1752C31.8925 81.1557 32.2758 81.7492 33.075 82.2366C33.6813 82.6062 34.1886 82.6176 50.1216 82.6176C66.0648 82.6176 66.5615 82.6064 67.1691 82.2358C67.9802 81.7414 68.4643 80.7844 68.4481 79.7074C68.4334 78.7378 68.0205 78.0607 67.034 77.3894L66.3877 76.9495H50.1386C34.7913 76.9495 33.8514 76.9693 33.208 77.3061Z" fill="white"/>
</svg>
