<svg width="42" height="42" viewBox="0 0 42 42" fill="none" xmlns="http://www.w3.org/2000/svg">
<path d="M32.8674 35.8343C32.8674 37.408 32.2422 38.9173 31.1295 40.0301C30.0167 41.1429 28.5074 41.768 26.9337 41.768H6.16566C4.59193 41.768 3.08267 41.1429 1.96988 40.0301C0.857092 38.9173 0.231934 37.408 0.231934 35.8343V15.0663C0.231934 13.4926 0.857092 11.9833 1.96988 10.8705C3.08267 9.75773 4.59193 9.13257 6.16566 9.13257V12.0994C5.37879 12.0994 4.62416 12.412 4.06777 12.9684C3.51137 13.5248 3.19879 14.2794 3.19879 15.0663V35.8343C3.19879 36.6212 3.51137 37.3758 4.06777 37.9322C4.62416 38.4886 5.37879 38.8012 6.16566 38.8012H26.9337C27.7205 38.8012 28.4752 38.4886 29.0316 37.9322C29.588 37.3758 29.9005 36.6212 29.9005 35.8343H32.8674Z" fill="white"/>
<path d="M15.0663 3.19886C14.2794 3.19886 13.5248 3.51143 12.9684 4.06783C12.412 4.62422 12.0994 5.37886 12.0994 6.16572V26.9337C12.0994 27.7206 12.412 28.4752 12.9684 29.0316C13.5248 29.588 14.2794 29.9006 15.0663 29.9006H35.8343C36.6212 29.9006 37.3758 29.588 37.9322 29.0316C38.4886 28.4752 38.8012 27.7206 38.8012 26.9337V6.16572C38.8012 5.37886 38.4886 4.62422 37.9322 4.06783C37.3758 3.51143 36.6212 3.19886 35.8343 3.19886H15.0663ZM15.0663 0.231995H35.8343C37.408 0.231995 38.9173 0.857153 40.0301 1.96994C41.1429 3.08273 41.768 4.592 41.768 6.16572V26.9337C41.768 28.5075 41.1429 30.0167 40.0301 31.1295C38.9173 32.2423 37.408 32.8675 35.8343 32.8675H15.0663C13.4926 32.8675 11.9833 32.2423 10.8705 31.1295C9.75773 30.0167 9.13257 28.5075 9.13257 26.9337V6.16572C9.13257 4.592 9.75773 3.08273 10.8705 1.96994C11.9833 0.857153 13.4926 0.231995 15.0663 0.231995V0.231995Z" fill="white"/>
</svg>
