<svg width="100" height="95" viewBox="0 0 100 95" fill="none" xmlns="http://www.w3.org/2000/svg">
<path fill-rule="evenodd" clip-rule="evenodd" d="M95.7766 18.1365C95.4144 18.2449 94.856 18.5958 94.5357 18.9164C94.2156 19.2369 83.5837 31.3831 70.9093 45.9076C58.235 60.4322 47.7667 72.2833 47.6465 72.2432C47.5264 72.2032 42.401 66.5966 36.2569 59.7843C30.1128 52.972 24.7696 47.1861 24.3831 46.9265C22.5971 45.7274 20.194 46.7505 19.5981 48.9636C19.1274 50.7113 18.4388 49.8291 31.9606 64.8042L33.4583 66.463L30.8759 69.4361C29.4555 71.0716 28.2597 72.4094 28.2184 72.4094C28.1772 72.4094 22.9989 66.6992 16.7111 59.72C8.72614 50.8567 5.07098 46.9437 4.58994 46.7427C2.00254 45.6615 -0.648138 47.9575 0.141875 50.5949C0.322421 51.1969 3.44235 54.7901 13.1889 65.6203C20.2341 73.4493 26.2977 80.0353 26.6634 80.2562C27.5657 80.8014 29.1414 80.7941 29.895 80.2415C30.2073 80.0126 32.0915 77.9554 34.0821 75.6704C36.0726 73.3854 37.7618 71.5075 37.8361 71.4972C37.9101 71.487 39.6655 73.3634 41.7365 75.6667C43.8077 77.9699 45.785 80.0353 46.1306 80.2562C46.9614 80.7873 48.4816 80.7873 49.3554 80.2562C49.9235 79.911 98.7234 24.2142 99.5854 22.9273C100.132 22.1116 100.139 20.8184 99.6025 19.7811C98.8752 18.3743 97.2774 17.6875 95.7766 18.1365ZM73.9016 20.9611C73.6789 21.0178 73.2831 21.2039 73.0223 21.3749C72.236 21.8901 43.7269 54.6763 43.3422 55.5077C42.8853 56.4954 42.8913 57.1084 43.3687 58.1592C44.0644 59.6914 46.0237 60.4099 47.648 59.7285C48.0825 59.5463 52.9361 54.1353 62.7451 42.8977C70.6963 33.7885 77.3643 26.0927 77.5624 25.7961C78.0771 25.0264 78.0467 23.2265 77.5043 22.3488C76.8226 21.2459 75.2165 20.6271 73.9016 20.9611Z" fill="#212121"/>
</svg>
