<svg width="100" height="90" viewBox="0 0 100 90" fill="none" xmlns="http://www.w3.org/2000/svg">
<path fill-rule="evenodd" clip-rule="evenodd" d="M32.3227 0.133215C28.564 0.615482 24.21 2.35625 21.0232 4.65058C19.1 6.03547 16.2087 9.03025 14.9479 10.9439C14.4191 11.7463 13.5741 13.2818 13.07 14.3561C11.5056 17.69 10.9647 19.9587 10.8112 23.8295C10.5387 30.7033 12.8289 36.8918 17.5309 41.9875L18.8757 43.4448L17.2633 44.4062C7.62596 50.1513 1.31039 60.2083 0.203655 71.5726C-0.0674614 74.3562 -0.0680473 85.6087 0.202874 86.5842C0.47399 87.5606 1.40551 88.5937 2.30071 88.9109C3.37052 89.2901 96.6295 89.2901 97.6993 88.9109C98.5945 88.5937 99.526 87.5606 99.7971 86.5842C100.068 85.6087 100.067 74.3562 99.7964 71.5726C98.6894 60.2066 92.3049 50.0483 82.7223 44.4061L81.1155 43.4601L82.2095 42.284C87.7711 36.306 90.1467 28.8419 88.9708 21.0406C88.4364 17.4942 87.0396 13.9322 84.967 10.829C83.6837 8.90758 80.2633 5.48835 78.367 4.23102C74.0376 1.36066 69.5604 0.00136808 64.4311 7.82025e-07C59.5985 -0.00117119 54.9588 1.31495 51.1044 3.78059L49.9822 4.49842L49.1609 3.9349C46.8534 2.35098 43.0186 0.846556 39.8972 0.300612C38.325 0.0255888 33.9198 -0.0718804 32.3227 0.133215ZM40.1359 7.60142C43.4465 8.45442 46.9042 10.6241 49.1597 13.264C52.1056 16.7121 53.5159 20.48 53.5159 24.9038C53.5159 31.7652 49.7726 37.8121 43.6518 40.839C40.6709 42.3131 39.1653 42.6534 35.6433 42.6495C33.0171 42.6465 32.5312 42.5909 30.9554 42.1129C24.3754 40.1164 19.8057 35.2643 18.2438 28.6151C17.8217 26.8186 17.8079 23.0283 18.2165 21.1645C19.7639 14.1059 25.3604 8.68158 32.5181 7.30315C34.4122 6.93847 38.1271 7.0838 40.1359 7.60142ZM68.6539 7.58481C73.8139 8.99177 77.6845 12.0575 80.0769 16.6319C81.5118 19.3756 82.0708 21.6702 82.0687 24.8062C82.0646 30.7467 79.5595 35.7294 74.8068 39.2503C69.4842 43.1935 62.9743 43.8232 56.6715 41.005L55.3137 40.3979L56.3835 38.8038C62.0678 30.3332 62.0119 19.3358 56.2411 10.8163L55.2989 9.42501L56.8002 8.72885C59.6213 7.42054 61.7188 7.01406 65.0403 7.13204C66.4022 7.18048 67.8249 7.35882 68.6539 7.58481ZM28.0568 48.6363C30.9697 49.5694 33.2293 49.862 36.62 49.7454C39.6194 49.642 41.4927 49.3057 44.0843 48.4048L45.298 47.9831L46.6659 48.5197C48.5973 49.2776 51.9545 51.3334 53.9066 52.954C58.8222 57.035 62.0448 62.2911 63.5998 68.7649C64.1061 70.8725 64.1416 71.3196 64.216 76.5195L64.2951 82.0375H35.6613H7.02766L7.03079 78.5704C7.03606 72.5484 7.4527 69.1933 8.62545 65.7276C10.7495 59.4503 15.2977 53.7975 20.922 50.4446C22.3629 49.5858 25.5599 48.0696 25.9544 48.0581C26.1045 48.0538 27.0504 48.314 28.0568 48.6363ZM76.043 48.8719C82.1953 51.6938 87.0006 56.3192 89.9223 62.2318C92.2113 66.864 92.9624 70.8911 92.9692 78.5704L92.9723 82.0375H82.2605H71.5485L71.4203 76.9101C71.2858 71.5308 71.0311 69.2335 70.2095 65.993C68.8594 60.6664 66.223 55.6394 62.6225 51.5256C61.8037 50.59 61.1337 49.7905 61.1337 49.7487C61.1337 49.7071 62.2219 49.7149 63.5519 49.7661C66.3705 49.8747 69.0662 49.5 71.6815 48.6365C72.5947 48.3349 73.5465 48.0796 73.7967 48.0692C74.0467 48.0589 75.0576 48.4201 76.043 48.8719Z" fill="#212121"/>
</svg>
