<svg width="31" height="19" viewBox="0 0 31 19" fill="none" xmlns="http://www.w3.org/2000/svg">
<g clip-path="url(#clip0_192_5)">
<path d="M1.70765 3.93378L15.6111 18.613L29.5145 3.93378C29.8923 3.53368 30.0987 2.99688 30.0885 2.44145C30.0784 1.88602 29.8523 1.35747 29.4602 0.972069C29.0681 0.58667 28.542 0.375994 27.9977 0.386387C27.4534 0.396779 26.9354 0.62739 26.5576 1.02749L15.6111 12.5911L4.65248 1.02749C4.27477 0.627392 3.75677 0.396781 3.21243 0.386389C2.66809 0.375996 2.142 0.586672 1.74989 0.972071C1.35778 1.35747 1.13177 1.88602 1.12159 2.44145C1.1114 2.99688 1.31787 3.53369 1.69558 3.93378L1.70765 3.93378Z" fill="#212121"/>
</g>
<defs>
<clipPath id="clip0_192_5">
<rect width="30" height="19" fill="white" transform="translate(30.6111 19) rotate(180)"/>
</clipPath>
</defs>
</svg>
