<svg width="19" height="21" viewBox="0 0 19 21" fill="none" xmlns="http://www.w3.org/2000/svg">
<path d="M9.793 0.292786C9.98053 0.105315 10.2348 0 10.5 0C10.7652 0 11.0195 0.105315 11.207 0.292786L14.207 3.29279C14.3945 3.48031 14.4998 3.73462 14.4998 3.99979C14.4998 4.26495 14.3945 4.51926 14.207 4.70679L11.207 7.70679C11.0184 7.88894 10.7658 7.98974 10.5036 7.98746C10.2414 7.98518 9.99059 7.88001 9.80518 7.6946C9.61977 7.5092 9.5146 7.25838 9.51233 6.99619C9.51005 6.73399 9.61084 6.48139 9.793 6.29279L11.086 4.99979H9.5C5.952 4.99979 3 7.95179 3 11.4998C3 15.0478 5.952 17.9998 9.5 17.9998C13.048 17.9998 16 15.0478 16 11.4998C16 11.2346 16.1054 10.9802 16.2929 10.7927C16.4804 10.6051 16.7348 10.4998 17 10.4998C17.2652 10.4998 17.5196 10.6051 17.7071 10.7927C17.8946 10.9802 18 11.2346 18 11.4998C18 16.1518 14.152 19.9998 9.5 19.9998C4.848 19.9998 1 16.1518 1 11.4998C1 6.84779 4.848 2.99979 9.5 2.99979H11.086L9.793 1.70679C9.60553 1.51926 9.50021 1.26495 9.50021 0.999786C9.50021 0.734622 9.60553 0.480314 9.793 0.292786V0.292786Z" fill="#4982B5"/>
</svg>
