<svg width="32" height="30" viewBox="0 0 32 30" fill="none" xmlns="http://www.w3.org/2000/svg">
<path d="M16 1C19.713 1 23.274 2.475 25.8995 5.1005C28.525 7.72601 30 11.287 30 15C30 18.713 28.525 22.274 25.8995 24.8995C23.274 27.525 19.713 29 16 29C12.287 29 8.72601 27.525 6.1005 24.8995C3.475 22.274 2 18.713 2 15C2 11.287 3.475 7.72601 6.1005 5.1005C8.72601 2.475 12.287 1 16 1V1ZM14.256 17.762L11.146 14.65C11.0345 14.5385 10.9021 14.4501 10.7565 14.3897C10.6108 14.3294 10.4547 14.2983 10.297 14.2983C10.1393 14.2983 9.9832 14.3294 9.83752 14.3897C9.69185 14.4501 9.55949 14.5385 9.448 14.65C9.22283 14.8752 9.09633 15.1806 9.09633 15.499C9.09633 15.8174 9.22283 16.1228 9.448 16.348L13.408 20.308C13.5192 20.4201 13.6514 20.509 13.7972 20.5697C13.9429 20.6304 14.0992 20.6616 14.257 20.6616C14.4148 20.6616 14.5711 20.6304 14.7168 20.5697C14.8626 20.509 14.9948 20.4201 15.106 20.308L23.306 12.106C23.419 11.995 23.5089 11.8627 23.5705 11.7167C23.6321 11.5708 23.6641 11.4141 23.6649 11.2557C23.6656 11.0973 23.635 10.9403 23.5748 10.7938C23.5145 10.6473 23.4259 10.5142 23.3139 10.4021C23.202 10.29 23.069 10.2012 22.9225 10.1408C22.7761 10.0804 22.6191 10.0496 22.4607 10.0501C22.3023 10.0507 22.1456 10.0826 21.9996 10.144C21.8536 10.2054 21.7212 10.2951 21.61 10.408L14.256 17.762Z" fill="#279D27"/>
</svg>
