<svg width="86" height="86" viewBox="0 0 86 86" fill="none" xmlns="http://www.w3.org/2000/svg">
<g clip-path="url(#clip0_189_2)">
<path d="M76.6537 7.47571H54.2182C53.1862 7.47571 52.3485 8.31336 52.3485 9.34539C52.3485 10.3774 53.1862 11.2151 54.2182 11.2151H76.6537C77.6857 11.2151 78.5234 10.3774 78.5234 9.34539C78.5234 8.31336 77.6857 7.47571 76.6537 7.47571Z" fill="#212121"/>
<path d="M77.9774 8.02542L70.4988 0.546865C69.7697 -0.182288 68.5843 -0.182288 67.8551 0.546865C67.126 1.27602 67.126 2.46142 67.8551 3.19057L74.01 9.34544L67.8514 15.504C67.1223 16.2331 67.1223 17.4185 67.8514 18.1477C68.2179 18.5103 68.6964 18.6937 69.1751 18.6937C69.6538 18.6937 70.1323 18.5105 70.4988 18.1477L77.9774 10.6691C78.7065 9.9398 78.7065 8.75458 77.9774 8.02542Z" fill="#212121"/>
<path d="M28.0435 7.47571H5.608C4.57597 7.47571 3.73832 8.31336 3.73832 9.34539C3.73832 10.3774 4.57597 11.2151 5.608 11.2151H28.0435C29.0755 11.2151 29.9132 10.3774 29.9132 9.34539C29.9132 8.31336 29.0755 7.47571 28.0435 7.47571Z" fill="#212121"/>
<path d="M8.25153 9.34519L14.4064 3.19033C15.1355 2.46118 15.1355 1.27577 14.4064 0.546621C13.6772 -0.182533 12.4918 -0.182533 11.7627 0.546621L4.2843 8.02535C3.55515 8.75451 3.55515 9.93991 4.2843 10.6691L11.7629 18.1476C12.1294 18.5103 12.6079 18.6936 13.0866 18.6936C13.5652 18.6936 14.0437 18.5104 14.4066 18.1439C15.1357 17.4148 15.1357 16.2294 14.4066 15.5002L8.25153 9.34519Z" fill="#212121"/>
<path d="M74.784 37.3898C73.2472 37.3898 71.815 37.8572 70.6259 38.6537C69.6014 35.7446 66.8231 33.6506 63.5663 33.6506C62.0294 33.6506 60.5972 34.1181 59.4081 34.9145C58.3836 32.0054 55.6053 29.9114 52.3485 29.9114C50.9875 29.9114 49.7087 30.2779 48.6093 30.9173V18.6936C48.6093 14.5692 45.2552 11.2151 41.1308 11.2151C37.0063 11.2151 33.6522 14.5692 33.6522 18.6936V50.4772L27.1534 45.605C23.3021 42.7145 17.8203 43.0998 14.4064 46.51C12.2189 48.6974 12.2189 52.2535 14.4064 54.4409L41.0336 81.0719C44.212 84.2502 48.441 86.0001 52.9357 86.0001H61.6967C73.0342 86.0001 82.2626 76.7755 82.2626 65.4343V44.8683C82.2626 40.7439 78.9085 37.3898 74.784 37.3898ZM78.5234 65.4341C78.5234 74.7112 70.9738 82.2608 61.6967 82.2608H52.9357C49.4357 82.2608 46.1489 80.8997 43.6774 78.428L17.0501 51.7972C16.321 51.0681 16.321 49.8827 17.0501 49.1535C18.2092 47.9981 19.7573 47.4035 21.3128 47.4035C22.5768 47.4035 23.8481 47.7962 24.9137 48.5963L34.4003 55.712C34.9687 56.1383 35.7315 56.2019 36.3597 55.8878C36.9916 55.5701 37.3917 54.9231 37.3917 54.2164V18.6936C37.3917 16.6333 39.0669 14.9545 41.1309 14.9545C43.195 14.9545 44.8701 16.6334 44.8701 18.6936V46.738C44.8701 47.7701 45.7078 48.6077 46.7398 48.6077C47.7718 48.6077 48.6095 47.7701 48.6095 46.738V37.39C48.6095 35.3296 50.2846 33.6508 52.3487 33.6508C54.4127 33.6508 56.0879 35.3297 56.0879 37.39V46.738C56.0879 47.7701 56.9255 48.6077 57.9576 48.6077C58.9896 48.6077 59.8272 47.7701 59.8272 46.738V41.1291C59.8272 39.0688 61.5024 37.39 63.5664 37.39C65.6305 37.39 67.3056 39.0689 67.3056 41.1291V46.738C67.3056 47.7701 68.1433 48.6077 69.1753 48.6077C70.2073 48.6077 71.045 47.7701 71.045 46.738V44.8683C71.045 42.808 72.7201 41.1291 74.7842 41.1291C76.8482 41.1291 78.5234 42.8081 78.5234 44.8683V65.4341V65.4341Z" fill="#212121"/>
</g>
<defs>
<clipPath id="clip0_189_2">
<rect width="86" height="86" fill="white"/>
</clipPath>
</defs>
</svg>
