<svg width="20" height="22" viewBox="0 0 20 22" fill="none" xmlns="http://www.w3.org/2000/svg">
<path d="M3 19C3 19.5304 3.21071 20.0391 3.58579 20.4142C3.96086 20.7893 4.46957 21 5 21H15C15.5304 21 16.0391 20.7893 16.4142 20.4142C16.7893 20.0391 17 19.5304 17 19V7H19V5H15V3C15 2.46957 14.7893 1.96086 14.4142 1.58579C14.0391 1.21071 13.5304 1 13 1H7C6.46957 1 5.96086 1.21071 5.58579 1.58579C5.21071 1.96086 5 2.46957 5 3V5H1V7H3V19ZM7 3H13V5H7V3ZM6 7H15V19H5V7H6Z" fill="white"/>
<path d="M7 9H9V17H7V9ZM11 9H13V17H11V9Z" fill="white"/>
</svg>
