<svg width="30" height="19" viewBox="0 0 30 19" fill="none" xmlns="http://www.w3.org/2000/svg">
<g clip-path="url(#clip0_192_8)">
<path d="M28.9035 15.0662L15 0.386963L1.09655 15.0662C0.718846 15.4663 0.512376 16.0031 0.522561 16.5586C0.532746 17.114 0.758753 17.6425 1.15086 18.0279C1.54297 18.4133 2.06906 18.624 2.6134 18.6136C3.15774 18.6032 3.67574 18.3726 4.05345 17.9725L15 6.40891L25.9586 17.9725C26.3363 18.3726 26.8543 18.6032 27.3987 18.6136C27.943 18.624 28.4691 18.4133 28.8612 18.0279C29.2533 17.6425 29.4793 17.114 29.4895 16.5586C29.4997 16.0031 29.2932 15.4663 28.9155 15.0662H28.9035Z" fill="#212121"/>
</g>
<defs>
<clipPath id="clip0_192_8">
<rect width="30" height="19" fill="white"/>
</clipPath>
</defs>
</svg>
