<svg width="31" height="31" viewBox="0 0 31 31" fill="none" xmlns="http://www.w3.org/2000/svg">
<path d="M29.9737 23.257L18.3607 1.86698C18.0532 1.30208 17.5991 0.830525 17.0462 0.501966C16.4933 0.173407 15.8621 0 15.2189 0C14.5758 0 13.9445 0.173407 13.3916 0.501966C12.8387 0.830525 12.3847 1.30208 12.0772 1.86698L0.452208 23.257C0.147937 23.8031 -0.00787396 24.4195 0.000306277 25.0446C0.00848652 25.6698 0.180372 26.2818 0.49883 26.8198C0.817288 27.3578 1.27119 27.803 1.8153 28.1109C2.35942 28.4188 2.97473 28.5787 3.5999 28.5747H26.8261C27.4461 28.5752 28.0557 28.4146 28.5949 28.1086C29.1342 27.8025 29.5846 27.3615 29.902 26.8289C30.2194 26.2962 30.3929 25.6902 30.4055 25.0703C30.4181 24.4504 30.2693 23.8378 29.9737 23.2927V23.257ZM13.4364 7.99544C13.4364 7.52111 13.6249 7.06621 13.9603 6.73081C14.2957 6.39541 14.7506 6.20698 15.2249 6.20698C15.6992 6.20698 16.1541 6.39541 16.4895 6.73081C16.8249 7.06621 17.0134 7.52111 17.0134 7.99544V16.2104C17.0134 16.6848 16.8249 17.1397 16.4895 17.4751C16.1541 17.8105 15.6992 17.9989 15.2249 17.9989C14.7506 17.9989 14.2957 17.8105 13.9603 17.4751C13.6249 17.1397 13.4364 16.6848 13.4364 16.2104V7.99544ZM15.2726 24.1035C14.867 24.1035 14.4705 23.9832 14.1332 23.7579C13.796 23.5326 13.5331 23.2123 13.3779 22.8375C13.2227 22.4628 13.1821 22.0505 13.2612 21.6527C13.3404 21.2549 13.5357 20.8894 13.8225 20.6026C14.1093 20.3158 14.4747 20.1205 14.8725 20.0414C15.2703 19.9623 15.6827 20.0029 16.0574 20.1581C16.4321 20.3133 16.7524 20.5762 16.9777 20.9134C17.2031 21.2506 17.3234 21.6471 17.3234 22.0527C17.3234 22.5966 17.1073 23.1183 16.7227 23.5029C16.3381 23.8875 15.8165 24.1035 15.2726 24.1035Z" fill="#FFA723"/>
</svg>
